HIERARCHY
ROOT Hips
{
	OFFSET	0.00	0.00	0.00
	CHANNELS 6 Xposition Yposition Zposition Zrotation Xrotation Yrotation
	JOINT LeftUpLeg
	{
		OFFSET	 0.126116	-0.065224	 0.014019
		CHANNELS 3 Zrotation Xrotation Yrotation
		JOINT LeftLeg
		{
			OFFSET	 0.000000	 0.569914	 0.000000
			CHANNELS 3 Zrotation Xrotation Yrotation
			JOINT LeftFoot
			{
				OFFSET	 0.000000	 0.544423	 0.000000
				CHANNELS 3 Zrotation Xrotation Yrotation
				JOINT LeftToeBase
				{
					OFFSET	 0.000000	 0.207117	 0.000000
					CHANNELS 3 Zrotation Xrotation Yrotation
					End Site
					{
						OFFSET	 0.000000	 0.207117	 0.000000
					}
				}
			}
		}
	}
	JOINT RightUpLeg
	{
		OFFSET	-0.124023	-0.065224	 0.008373
		CHANNELS 3 Zrotation Xrotation Yrotation
		JOINT RightLeg
		{
			OFFSET	 0.000000	 0.570047	 0.000000
			CHANNELS 3 Zrotation Xrotation Yrotation
			JOINT RightFoot
			{
				OFFSET	 0.000000	 0.544354	 0.000000
				CHANNELS 3 Zrotation Xrotation Yrotation
				JOINT RightToeBase
				{
					OFFSET	 0.000000	 0.207540	 0.000000
					CHANNELS 3 Zrotation Xrotation Yrotation
					End Site
					{
						OFFSET	 0.000000	 0.207540	 0.000000
					}
				}
			}
		}
	}
	JOINT Spine
	{
		OFFSET	 0.000184	 0.117403	 0.007763
		CHANNELS 3 Zrotation Xrotation Yrotation
		JOINT Spine1
		{
			OFFSET	 0.000000	 0.137269	 0.000000
			CHANNELS 3 Zrotation Xrotation Yrotation
			JOINT Spine2
			{
				OFFSET	 0.000000	 0.156879	 0.000000
				CHANNELS 3 Zrotation Xrotation Yrotation
				JOINT LeftShoulder
				{
					OFFSET	 0.080501	 0.160143	 0.002496
					CHANNELS 3 Zrotation Xrotation Yrotation
					JOINT LeftArm
					{
						OFFSET	 0.000000	 0.164363	 0.000000
						CHANNELS 3 Zrotation Xrotation Yrotation
						JOINT LeftForeArm
						{
							OFFSET	 0.000000	 0.364576	 0.000000
							CHANNELS 3 Zrotation Xrotation Yrotation
							JOINT LeftHand
							{
								OFFSET	 0.000000	 0.360812	 0.000000
								CHANNELS 3 Zrotation Xrotation Yrotation
								JOINT LeftHandIndex1
								{
									OFFSET	 0.000000	 0.086006	 0.000000
									CHANNELS 3 Zrotation Xrotation Yrotation
									JOINT LeftHandIndex2
									{
										OFFSET	 0.000000	 0.047237	 0.000000
										CHANNELS 3 Zrotation Xrotation Yrotation
										JOINT LeftHandIndex3
										{
											OFFSET	-0.004284	 0.038165	 0.000551
											CHANNELS 3 Zrotation Xrotation Yrotation
											End Site
											{
												OFFSET	-0.004284	 0.038165	 0.000551
											}
										}
									}
								}
							}
						}
					}
				}
				JOINT Neck
				{
					OFFSET	 0.000000	 0.176489	 0.000000
					CHANNELS 3 Zrotation Xrotation Yrotation
					JOINT Head
					{
						OFFSET	 0.000000	 0.077941	 0.001747
						CHANNELS 3 Zrotation Xrotation Yrotation
						End Site
						{
							OFFSET	 0.000000	 0.077941	 0.001747
						}
					}
				}
				JOINT RightShoulder
				{
					OFFSET	-0.080363	 0.159706	-0.000306
					CHANNELS 3 Zrotation Xrotation Yrotation
					JOINT RightArm
					{
						OFFSET	 0.000000	 0.164196	 0.000000
						CHANNELS 3 Zrotation Xrotation Yrotation
						JOINT RightForeArm
						{
							OFFSET	 0.000000	 0.365611	 0.000000
							CHANNELS 3 Zrotation Xrotation Yrotation
							JOINT RightHand
							{
								OFFSET	 0.000000	 0.360648	 0.000000
								CHANNELS 3 Zrotation Xrotation Yrotation
								JOINT RightHandIndex1
								{
									OFFSET	 0.000000	 0.069977	 0.000000
									CHANNELS 3 Zrotation Xrotation Yrotation
									JOINT RightHandIndex2
									{
										OFFSET	 0.000000	 0.052305	 0.000000
										CHANNELS 3 Zrotation Xrotation Yrotation
										JOINT RightHandIndex3
										{
											OFFSET	 0.009002	 0.042196	 0.000782
											CHANNELS 3 Zrotation Xrotation Yrotation
											End Site
											{
												OFFSET	 0.009002	 0.042196	 0.000782
											}
										}
									}
								}
							}
						}
					}
				}
			}
		}
	}
}
MOTION
Frames:    8
Frame Time: 0.03333334
-0.004487	 1.233466	 0.011424	 1.254773	 0.291804	 172.336000	-160.836900	 12.433730	-28.052790	 5.173772	-18.720450	 2.970249	-11.408450	 62.156910	 3.750475	 1.162006	 26.688980	-2.659651	 172.706800	 10.933030	 19.637780	-2.586409	-30.780940	 7.772941	 13.384120	 77.724730	-9.511961	-1.288974	 28.372230	 2.710510	 2.430594	 6.539266	 7.933285	-4.140607	 2.804322	 4.076315	 6.517611	-2.102984	-9.102459	-113.188700	 6.484847	 92.935730	 48.573980	 36.046660	-14.085410	 4.527266	-0.233545	-0.034908	-1.695708	 30.886970	 29.442730	 0.566401	 8.636064	-0.355702	-5.949558	 13.581480	 1.518371	 4.986235	-3.507540	-0.334582	 3.185639	-6.825809	 0.872110	-1.217422	-5.665787	 0.996194	 123.454700	 10.374290	-96.382980	-6.624855	 36.262820	-1.850910	-5.095079	-0.200042	 0.009983	 2.652993	 15.042840	-0.167275	-2.309636	 4.851140	 0.896190	 12.531560	 22.808120	-5.137635	-8.500003	 13.027720	-0.520797
-0.004579	 1.233378	 0.011635	 1.224302	 0.128313	 172.173100	-160.650900	 12.556860	-29.053370	 5.178017	-18.809990	 2.848803	-11.111150	 62.059750	 3.679835	 1.161866	 26.687080	-2.659595	 172.457800	 11.114180	 20.484680	-2.591872	-30.854100	 7.704836	 12.857930	 77.691920	-9.054302	-1.288840	 28.370460	 2.710453	 2.435538	 6.412694	 8.344012	-4.333157	 2.712460	 4.178894	 6.613203	-2.091117	-9.063998	-113.127600	 6.493423	 92.942150	 48.326030	 36.184080	-13.904240	 4.590574	-0.232947	 0.326002	-1.459121	 30.920150	 29.667140	 0.613875	 8.488809	-0.355460	-5.948953	 13.614570	 1.521918	 4.988629	-3.454955	-0.333312	 3.183904	-6.827101	 0.882101	-1.218329	-5.694468	 1.073082	 123.413700	 10.380970	-96.378680	-6.443071	 36.258180	-1.905112	-5.143182	-0.198912	-0.350805	 2.424099	 15.037440	 0.110651	-2.326798	 4.904894	 0.895499	 12.541780	 22.949910	-5.171859	-8.501029	 13.143780	-0.528123
-0.004730	 1.233211	 0.012003	 1.162666	-0.092837	 171.797700	-160.407900	 12.686170	-30.518340	 5.244077	-18.947830	 2.782014	-10.959140	 61.991950	 3.795249	 1.161537	 26.682640	-2.659464	 172.160300	 11.417520	 21.322600	-2.600913	-30.988180	 7.547309	 11.874520	 77.652990	-8.140025	-1.288526	 28.366330	 2.710320	 2.438882	 6.278903	 9.314007	-4.819558	 2.615953	 4.446828	 6.849158	-2.122595	-8.977086	-112.984500	 6.513555	 92.957200	 48.087440	 36.357860	-13.667010	 4.753846	-0.232215	 1.170755	-1.178413	 31.030570	 30.210660	 0.724975	 8.143989	-0.354410	-5.947543	 13.692030	 1.530224	 4.994232	-3.331847	-0.330348	 3.179844	-6.830123	 0.905488	-1.220304	-5.761669	 1.253204	 123.317800	 10.396590	-96.368640	-6.217538	 36.355260	-1.923936	-5.293089	-0.197742	-1.195414	 2.023165	 14.920630	 0.823227	-2.366977	 5.030739	 0.893943	 12.566140	 23.281910	-5.252243	-8.503376	 13.415540	-0.545283
-0.004909	 1.232999	 0.012484	 1.081167	-0.330091	 171.282800	-160.151600	 12.794860	-31.977090	 5.295958	-19.121240	 2.588795	-10.986710	 61.970010	 4.076523	 1.161084	 26.676510	-2.659284	 171.873200	 11.785630	 21.985410	-2.611448	-31.152780	 7.330869	 10.613090	 77.606840	-6.937462	-1.288092	 28.360630	 2.710137	 2.441145	 6.163469	 10.681040	-5.545267	 2.545292	 4.858087	 7.196879	-2.202745	-8.858795	-112.787000	 6.541402	 92.977860	 47.902900	 36.513660	-13.413580	 4.989195	-0.231763	 2.335617	-0.921218	 31.219770	 31.025400	 0.878210	 7.667960	-0.351854	-5.945616	 13.798910	 1.541687	 5.001952	-3.161964	-0.326277	 3.174242	-6.834297	 0.937760	-1.222678	-5.854472	 1.501867	 123.185300	 10.418130	-96.354750	-5.992023	 36.555630	-1.904457	-5.517681	-0.196918	-2.360192	 1.524888	 14.703840	 1.889633	-2.422432	 5.204403	 0.891942	 12.600690	 23.740160	-5.363796	-8.506481	 13.790620	-0.568980
-0.005144	 1.232710	 0.013209	 0.963597	-0.633549	 170.533100	-159.826900	 12.904250	-33.782000	 5.364960	-19.351250	 2.303718	-11.201630	 61.988040	 4.578949	 1.160421	 26.667530	-2.659021	 171.541900	 12.292180	 22.606790	-2.624887	-31.371350	 7.014882	 8.818446	 77.530410	-5.206042	-1.287458	 28.352290	 2.709868	 2.440372	 6.040161	 12.739540	-6.700313	 2.505676	 5.536630	 7.743467	-2.366517	-8.687398	-112.497900	 6.582304	 93.007960	 47.739440	 36.647110	-13.085530	 5.337796	-0.231294	 4.038398	-0.650544	 31.557170	 32.346810	 1.102479	 6.970482	-0.345798	-5.942832	 13.955440	 1.558475	 5.013233	-2.913181	-0.320359	 3.166044	-6.840415	 0.985016	-1.225423	-5.990504	 1.866211	 122.991400	 10.449590	-96.334300	-5.727577	 36.924170	-1.846124	-5.858733	-0.196305	-4.062668	 0.830221	 14.328270	 3.601310	-2.503659	 5.458729	 0.889314	 12.653310	 24.411450	-5.528509	-8.510754	 14.340060	-0.603725
-0.005420	 1.232371	 0.014206	 0.812517	-0.995745	 169.572700	-159.443900	 13.004040	-35.841660	 5.444968	-19.617110	 1.934365	-11.621240	 62.047320	 5.297693	 1.159569	 26.655990	-2.658683	 171.189700	 12.923040	 23.129870	-2.639745	-31.623200	 6.609644	 6.553537	 77.405750	-3.007931	-1.286642	 28.341560	 2.709523	 2.425866	 5.909581	 15.473310	-8.307603	 2.527554	 6.529944	 8.492720	-2.643863	-8.469928	-112.125900	 6.635102	 93.046350	 47.620460	 36.698220	-12.688680	 5.787139	-0.230961	 6.219084	-0.407899	 32.082390	 34.248460	 1.390744	 6.072945	-0.333976	-5.939319	 14.156720	 1.580070	 5.027700	-2.593230	-0.312821	 3.155509	-6.848292	 1.045785	-1.227666	-6.165633	 2.335060	 122.741900	 10.489930	-96.307810	-5.451471	 37.487590	-1.744213	-6.306941	-0.195792	-6.243091	-0.028279	 13.771550	 6.026039	-2.608157	 5.785815	 0.886465	 12.724580	 25.275040	-5.742780	-8.515754	 15.046910	-0.648492
-0.005710	 1.232058	 0.015334	 0.650792	-1.384206	 168.567700	-159.035000	 13.096120	-37.970240	 5.522228	-19.872960	 1.543525	-12.100560	 62.119050	 6.076886	 1.158671	 26.643850	-2.658327	 170.839000	 13.586320	 23.638180	-2.652829	-31.856520	 6.184434	 4.157552	 77.228810	-0.691143	-1.285784	 28.330260	 2.709160	 2.387971	 5.758684	 18.431940	-10.079180	 2.599878	 7.699523	 9.304402	-3.000005	-8.244776	-111.734500	 6.690954	 93.086380	 47.525420	 36.645760	-12.257260	 6.258634	-0.230582	 8.497816	-0.208991	 32.729740	 36.452870	 1.694024	 5.127868	-0.316646	-5.935702	 14.368540	 1.602803	 5.042876	-2.256520	-0.304978	 3.144432	-6.856593	 1.109730	-1.228461	-6.350129	 2.828754	 122.479300	 10.532300	-96.279790	-5.196627	 38.146360	-1.626637	-6.779561	-0.195504	-8.521543	-0.906882	 13.117920	 8.798646	-2.718180	 6.130040	 0.884114	 12.804080	 26.184090	-5.971381	-8.520417	 15.791030	-0.695713
-0.005919	 1.231899	 0.015993	 0.559348	-1.637586	 168.027100	-158.746500	 13.167520	-39.455670	 5.567100	-20.021330	 1.334634	-12.200350	 62.143080	 6.422773	 1.158189	 26.637320	-2.658136	 170.565800	 13.957350	 24.269330	-2.659209	-31.972560	 5.956229	 2.768856	 77.090840	 0.604934	-1.285323	 28.324190	 2.708966	 2.367859	 5.628667	 20.048780	-11.024820	 2.625390	 8.368907	 9.733014	-3.201534	-8.124868	-111.524200	 6.721091	 93.107750	 47.390990	 36.611310	-11.962240	 6.504032	-0.230024	 9.713500	-0.037609	 33.111810	 37.700590	 1.857023	 4.619788	-0.305264	-5.933794	 14.482380	 1.615022	 5.051011	-2.075562	-0.300800	 3.138483	-6.861059	 1.144094	-1.228217	-6.449370	 3.094273	 122.338200	 10.555010	-96.264630	-5.005462	 38.493850	-1.596624	-7.022082	-0.194995	-9.737011	-1.410273	 12.759080	 10.354440	-2.777333	 6.315039	 0.883124	 12.848750	 26.672700	-6.095610	-8.522666	 16.191020	-0.721143
